<svg width="56" height="56" viewBox="0 0 56 56" fill="none" xmlns="http://www.w3.org/2000/svg">
<g clip-path="url(#clip0_4821_96)">
<path d="M11.6667 16.332H14C15.2377 16.332 16.4247 15.8404 17.2998 14.9652C18.175 14.09 18.6667 12.903 18.6667 11.6654C18.6667 11.0465 18.9125 10.453 19.3501 10.0154C19.7877 9.57786 20.3812 9.33203 21 9.33203H35C35.6188 9.33203 36.2123 9.57786 36.6499 10.0154C37.0875 10.453 37.3333 11.0465 37.3333 11.6654C37.3333 12.903 37.825 14.09 38.7002 14.9652C39.5753 15.8404 40.7623 16.332 42 16.332H44.3333C45.571 16.332 46.758 16.8237 47.6332 17.6989C48.5083 18.574 49 19.761 49 20.9987V41.9987C49 43.2364 48.5083 44.4234 47.6332 45.2985C46.758 46.1737 45.571 46.6654 44.3333 46.6654H11.6667C10.429 46.6654 9.242 46.1737 8.36683 45.2985C7.49167 44.4234 7 43.2364 7 41.9987V20.9987C7 19.761 7.49167 18.574 8.36683 17.6989C9.242 16.8237 10.429 16.332 11.6667 16.332" stroke="black" stroke-width="2" stroke-linecap="round" stroke-linejoin="round"/>
<path d="M28 37.332C31.866 37.332 35 34.198 35 30.332C35 26.466 31.866 23.332 28 23.332C24.134 23.332 21 26.466 21 30.332C21 34.198 24.134 37.332 28 37.332Z" stroke="black" stroke-width="2" stroke-linecap="round" stroke-linejoin="round"/>
</g>
<defs>
<clipPath id="clip0_4821_96">
<rect width="56" height="56" fill="white"/>
</clipPath>
</defs>
</svg>
